<svg t="1701673235874" class="icon" viewBox="0 0 1024 1024" version="1.1" xmlns="http://www.w3.org/2000/svg" p-id="5504" width="16" height="16"><path d="M496.839111 341.333333 523.377778 341.333333c7.566222 0 15.189333-7.594667 15.189333-15.160889L538.567111 185.827556C538.567111 178.261333 530.944 170.666667 523.377778 170.666667l-26.538667 0c-7.594667 0-15.189333 7.594667-15.160889 15.160889l0 140.344889C481.678222 333.738667 489.244444 341.333333 496.839111 341.333333z" fill="#1296db" p-id="5505"></path><path d="M140.316444 348.928l102.4 102.4C246.528 455.111111 257.905778 455.111111 261.688889 451.328L280.661333 432.355556c3.783111-3.783111 3.783111-15.189333 0-18.972444l-102.4-102.4c-3.783111-7.594667-11.377778-7.594667-18.972444 0L140.316444 329.955556C132.750222 337.550222 132.750222 345.116444 140.316444 348.928z" fill="#1296db" p-id="5506"></path><path d="M743.338667 428.572444l18.972444 18.972444c3.811556 3.783111 15.189333 3.783111 18.972444 0l102.4-102.4c3.811556-3.783111 3.811556-15.160889 0-18.972444L864.711111 307.2c-3.811556-3.783111-15.160889-3.783111-18.972444 0l-102.428444 102.4C735.772444 417.194667 735.772444 424.760889 743.338667 428.572444z" fill="#1296db" p-id="5507"></path><path d="M227.555556 678.883556 227.555556 705.422222c0 7.594667 7.594667 15.189333 15.160889 15.189333l26.567111 0C276.849778 720.611556 284.444444 712.988444 284.444444 705.422222L284.444444 682.666667c0-125.155556 102.4-227.555556 227.555556-227.555556 125.155556 0 227.555556 102.4 227.555556 227.555556l0 22.755556c0 7.594667 7.594667 15.189333 15.160889 15.189333l26.567111 0c7.594667 0 15.160889-7.623111 15.160889-15.189333l0-26.538667c0-0.369778-0.227556-0.682667-0.256-1.052444C793.514667 524.515556 665.856 398.222222 512 398.222222s-281.514667 126.293333-284.188444 279.608889C227.783111 678.200889 227.555556 678.513778 227.555556 678.883556z" fill="#1296db" p-id="5508"></path><path d="M1008.839111 747.150222 15.160889 747.150222C7.594667 747.150222 0 754.716444 0 762.311111l0 26.567111C0 796.444444 7.594667 804.039111 15.160889 804.039111l993.678222 0C1016.405333 804.039111 1024 796.444444 1024 788.849778L1024 762.311111C1024 754.716444 1016.405333 747.150222 1008.839111 747.150222z" fill="#1296db" p-id="5509"></path></svg>