<svg t="1701423314080" class="icon" viewBox="0 0 1024 1024" version="1.1" xmlns="http://www.w3.org/2000/svg" p-id="10898" width="16" height="16"><path d="M725.333333 896H298.666667c-12.8 0-21.333333-8.533333-21.333334-21.333333V533.333333c0-130.133333 104.533333-234.666667 234.666667-234.666666s234.666667 104.533333 234.666667 234.666666v341.333334c0 12.8-8.533333 21.333333-21.333334 21.333333z m-405.333333-42.666667h384V533.333333c0-106.666667-85.333333-192-192-192s-192 85.333333-192 192v320zM512 192c-12.8 0-21.333333-8.533333-21.333333-21.333333V106.666667c0-12.8 8.533333-21.333333 21.333333-21.333334s21.333333 8.533333 21.333333 21.333334v64c0 12.8-8.533333 21.333333-21.333333 21.333333zM725.333333 268.8c-4.266667 0-10.666667-2.133333-12.8-4.266667-8.533333-8.533333-10.666667-21.333333-2.133333-29.866666l40.533333-49.066667c8.533333-8.533333 21.333333-10.666667 29.866667-2.133333 8.533333 8.533333 10.666667 21.333333 2.133333 29.866666l-40.533333 49.066667c-6.4 4.266667-12.8 6.4-17.066667 6.4zM838.4 465.066667c-10.666667 0-19.2-6.4-21.333333-17.066667-2.133333-10.666667 6.4-23.466667 17.066666-25.6l64-10.666667c10.666667-2.133333 23.466667 6.4 25.6 17.066667 2.133333 10.666667-6.4 23.466667-17.066666 25.6l-64 10.666667h-4.266667zM185.6 465.066667h-4.266667l-64-10.666667c-10.666667-2.133333-19.2-12.8-17.066666-25.6 2.133333-10.666667 12.8-19.2 25.6-17.066667l64 10.666667c10.666667 2.133333 19.2 12.8 17.066666 25.6-2.133333 10.666667-10.666667 17.066667-21.333333 17.066667zM298.666667 268.8c-6.4 0-12.8-2.133333-17.066667-8.533333L241.066667 213.333333c-6.4-10.666667-6.4-23.466667 4.266666-29.866666 8.533333-8.533333 23.466667-6.4 29.866667 2.133333l40.533333 49.066667c8.533333 8.533333 6.4 23.466667-2.133333 29.866666-4.266667 2.133333-8.533333 4.266667-14.933333 4.266667z" fill="#1296db" p-id="10899"></path><path d="M917.333333 896H128c-12.8 0-21.333333-8.533333-21.333333-21.333333s8.533333-21.333333 21.333333-21.333334h789.333333c12.8 0 21.333333 8.533333 21.333334 21.333334s-8.533333 21.333333-21.333334 21.333333z" fill="#1296db" p-id="10900"></path></svg>