<svg t="1701492497419" class="icon" viewBox="0 0 1024 1024" version="1.1" xmlns="http://www.w3.org/2000/svg" p-id="4227" width="16" height="16"><path d="M537.6 180.1984V102.4h-51.2v77.7984q-7.3472 0.5632-14.6688 1.4336-7.296 0.896-14.592 2.1248-7.2448 1.2032-14.464 2.7392-7.1936 1.536-14.336 3.3792-7.1168 1.8688-14.1824 4.0192-7.04 2.176-13.9776 4.6592-6.912 2.4576-13.7472 5.248-6.8352 2.7904-13.5424 5.8624-6.6816 3.072-13.2352 6.4512t-12.9536 7.04q-6.4 3.6608-12.6208 7.6032-6.2208 3.9168-12.288 8.1408-6.016 4.1984-11.8784 8.704-5.8624 4.4544-11.52 9.1904-5.632 4.7104-11.0848 9.7024-5.4272 4.9664-10.624 10.1888-5.2224 5.1968-10.1888 10.624-4.992 5.4528-9.728 11.1104-4.7104 5.632-9.1904 11.4944t-8.704 11.904q-4.1984 6.0416-8.1152 12.288-3.9424 6.2208-7.6032 12.5952-3.6608 6.4-7.04 12.9536-3.3792 6.5536-6.4512 13.2608-3.072 6.6816-5.8624 13.5168-2.7904 6.8096-5.248 13.7472-2.4832 6.9376-4.6592 13.9776-2.1504 7.0656-4.0192 14.1824-1.8432 7.1424-3.3792 14.336-1.536 7.2192-2.7392 14.4896-1.2288 7.2704-2.1248 14.592-0.8704 7.296-1.4336 14.6432H102.4v51.2h77.7984q0.5632 7.3472 1.4336 14.6688 0.896 7.296 2.1248 14.592 1.2032 7.2448 2.7392 14.464 1.536 7.1936 3.3792 14.336 1.8688 7.1168 4.0192 14.1824 2.176 7.04 4.6592 13.9776 2.4576 6.912 5.248 13.7472 2.7904 6.8352 5.8624 13.5168 3.072 6.7072 6.4512 13.2608t7.04 12.9536q3.6608 6.4 7.6032 12.6208 3.9168 6.2208 8.1408 12.288 4.1984 6.016 8.704 11.8784 4.4544 5.8624 9.1904 11.52 4.7104 5.632 9.7024 11.0592 4.9664 5.4528 10.1888 10.6496 5.1968 5.2224 10.624 10.1888 5.4528 4.992 11.1104 9.728 5.632 4.7104 11.4944 9.1904t11.904 8.704q6.0416 4.1984 12.288 8.1152 6.2208 3.9424 12.5952 7.6032 6.4 3.6608 12.9536 7.04 6.5536 3.3792 13.2608 6.4512 6.6816 3.072 13.5168 5.8624 6.8096 2.7904 13.7472 5.248 6.9376 2.4832 13.9776 4.6592 7.0656 2.1504 14.1824 4.0192 7.1424 1.8432 14.336 3.3792 7.2192 1.536 14.4896 2.7392 7.2704 1.2288 14.592 2.0992 7.296 0.896 14.6432 1.4592V921.6h51.2v-77.7728q7.3472-0.5888 14.6688-1.4848 7.296-0.8704 14.592-2.0992 7.2448-1.2032 14.464-2.7392 7.1936-1.536 14.336-3.3792 7.1168-1.8688 14.1824-4.0192 7.04-2.176 13.9776-4.6592 6.912-2.4576 13.7472-5.248 6.8352-2.7904 13.5168-5.8624 6.7072-3.072 13.2608-6.4512t12.9536-7.04q6.4-3.6608 12.6208-7.6032 6.2208-3.9168 12.288-8.1408 6.016-4.1984 11.8784-8.704 5.8624-4.4544 11.52-9.1904 5.632-4.7104 11.0592-9.7024 5.4528-4.9664 10.6496-10.1888 5.2224-5.1968 10.1888-10.6496 4.992-5.4272 9.728-11.0848 4.7104-5.632 9.1904-11.4944t8.704-11.904q4.1984-6.0416 8.1152-12.288 3.9424-6.2208 7.6032-12.5952 3.6608-6.4 7.04-12.9536 3.3792-6.5536 6.4512-13.2608 3.072-6.6816 5.8624-13.5168 2.7904-6.8096 5.248-13.7472 2.4832-6.9376 4.6592-13.9776 2.1504-7.0656 4.0192-14.1824 1.8432-7.1424 3.3792-14.336 1.536-7.2192 2.7392-14.4896 1.2288-7.2704 2.0992-14.592 0.896-7.296 1.4592-14.6432H921.6v-51.2h-77.7728q-0.5888-7.3472-1.4848-14.6688-0.8704-7.296-2.0992-14.592-1.2032-7.2448-2.7392-14.464-1.536-7.1936-3.3792-14.336-1.8688-7.1168-4.0192-14.1824-2.176-7.04-4.6592-13.9776-2.4576-6.912-5.248-13.7472-2.7904-6.8352-5.8624-13.5424-3.072-6.6816-6.4512-13.2352t-7.04-12.9536q-3.6608-6.4-7.6032-12.6208-3.9168-6.2208-8.1408-12.288-4.1984-6.016-8.704-11.8784-4.4544-5.8624-9.1904-11.52-4.7104-5.632-9.7024-11.0848-4.9664-5.4272-10.1888-10.624-5.1968-5.2224-10.6496-10.1888-5.4272-4.992-11.0848-9.728-5.632-4.7104-11.4944-9.1904t-11.904-8.704q-6.0416-4.1984-12.288-8.1152-6.2208-3.9424-12.5952-7.6032-6.4-3.6608-12.9536-7.04-6.5536-3.3792-13.2608-6.4512-6.6816-3.072-13.5168-5.8624-6.8096-2.7904-13.7472-5.248-6.9376-2.4832-13.9776-4.6592-7.0656-2.1504-14.1824-4.0192-7.1424-1.8432-14.336-3.3792-7.2192-1.536-14.4896-2.7392-7.2704-1.2288-14.592-2.1248-7.296-0.8704-14.6432-1.4336z m-51.2 51.3536V307.2h51.2V231.552q40.1152 3.584 78.0544 18.6112 54.2208 21.4784 95.488 62.72 41.216 41.216 62.6944 95.4624 15.0016 37.9392 18.6112 78.0544H716.8v51.2h75.648q-3.584 40.1152-18.6112 78.0544-21.4784 54.2208-62.72 95.488-41.216 41.216-95.4624 62.6944-37.9392 15.0016-78.0544 18.6112V716.8h-51.2v75.648q-40.1152-3.584-78.0544-18.6112-54.2208-21.4784-95.488-62.72-41.216-41.216-62.6944-95.4624-15.0016-37.9392-18.6112-78.0544H307.2v-51.2H231.552q3.584-40.1152 18.6112-78.0544 21.4784-54.2208 62.72-95.488 41.216-41.216 95.4624-62.6944 37.9392-15.0016 78.0544-18.6112zM460.8 460.8h102.4v102.4h-102.4v-102.4z" p-id="4228" fill="#1296db"></path></svg>