<svg t="1701673092712" class="icon" viewBox="0 0 1024 1024" version="1.1" xmlns="http://www.w3.org/2000/svg" p-id="4246" width="16" height="16"><path d="M499.584 96a32 32 0 0 1 32 32v60.501333a32 32 0 0 1-64 0V128a32 32 0 0 1 32-32zM254.250667 512a245.333333 245.333333 0 1 1 490.666666 0 245.333333 245.333333 0 0 1-490.666666 0z m245.333333-181.333333a181.333333 181.333333 0 1 0 0 362.666666 181.333333 181.333333 0 0 0 0-362.666666z m32 480a32 32 0 0 0-64 0v60.501333a32 32 0 0 0 64 0V810.666667zM214.186667 214.186667a32 32 0 0 1 45.269333 0l42.794667 42.794666a32 32 0 1 1-45.269334 45.226667L214.186667 259.498667a32 32 0 0 1 0-45.226667z m528 482.688a32 32 0 1 0-45.226667 45.226666l42.752 42.794667a32 32 0 0 0 45.226667-45.226667l-42.752-42.794666zM96 499.498667a32 32 0 0 1 32-32h60.501333a32 32 0 0 1 0 64H128a32 32 0 0 1-32-32z m714.666667-32a32 32 0 0 0 0 64h60.501333a32 32 0 0 0 0-64H810.666667zM214.186667 784.853333a32 32 0 0 1 0-45.226666l42.794666-42.794667a32 32 0 1 1 45.226667 45.226667l-42.752 42.794666a32 32 0 0 1-45.226667 0zM696.96 256.768a32 32 0 1 0 45.269333 45.269333l42.794667-42.794666a32 32 0 0 0-45.269333-45.226667l-42.794667 42.752z" fill="#1296db" p-id="4247"></path></svg>