<svg t="1701530175468" class="icon" viewBox="0 0 1024 1024" version="1.1" xmlns="http://www.w3.org/2000/svg" p-id="12986" width="16" height="16"><path d="M512 512m-483.555556 0a483.555556 483.555556 0 1 0 967.111112 0 483.555556 483.555556 0 1 0-967.111112 0Z" fill="#618AF3" p-id="12987"></path><path d="M341.333333 256m56.888889 0l227.555556 0q56.888889 0 56.888889 56.888889l0 455.111111q0 56.888889-56.888889 56.888889l-227.555556 0q-56.888889 0-56.888889-56.888889l0-455.111111q0-56.888889 56.888889-56.888889Z" fill="#FFFFFF" p-id="12988"></path><path d="M369.777778 312.888889h284.444444v341.333333h-284.444444z" fill="#618AF3" p-id="12989"></path><path d="M512 739.555556m-56.888889 0a56.888889 56.888889 0 1 0 113.777778 0 56.888889 56.888889 0 1 0-113.777778 0Z" fill="#618AF3" p-id="12990"></path></svg>