<svg t="1701527224153" class="icon" viewBox="0 0 1024 1024" version="1.1" xmlns="http://www.w3.org/2000/svg" p-id="6481" width="32" height="32"><path d="M580.864 511.959c-11.938 0-23.926 11.938-23.926 23.729 0 12.062 11.988 23.812 23.926 23.812 18.105 0 29.969-11.75 29.969-23.812 0-11.792-11.863-23.729-29.969-23.729zM335.458 339.459c-17.926 0-36.031 11.791-36.031 29.666 0 17.834 18.105 29.792 36.031 29.792 17.938 0 29.896-11.958 29.896-29.792 0-17.875-11.958-29.666-29.896-29.666zM503.001 398.917c18.01 0 29.957-11.958 29.957-29.792 0-17.875-11.947-29.666-29.957-29.666-17.949 0-35.949 11.791-35.949 29.666 0 17.834 18 29.792 35.949 29.792zM712.542 511.959c-11.854 0-23.803 11.938-23.803 23.729 0 12.062 11.949 23.812 23.803 23.812 17.938 0 29.959-11.75 29.959-23.812 0-11.792-12.022-23.729-29.959-23.729z" fill="#44AF35" p-id="6482"></path><path d="M512 0C229.229 0 0 229.229 0 512s229.229 512 512 512c282.77 0 512-229.229 512-512S794.77 0 512 0z m-69.604 522.604c-0.26 0.542-0.5 1.167-0.707 1.688-0.24 0.562-0.49 1.167-0.699 1.708-0.219 0.542-0.479 1.084-0.688 1.709-0.188 0.541-0.416 1.083-0.635 1.688-0.24 0.541-0.416 1.083-0.625 1.666-0.229 0.604-0.406 1.146-0.594 1.688a16.435 16.435 0 0 0-0.584 1.688c-0.219 0.562-0.426 1.167-0.613 1.709-0.178 0.541-0.344 1.104-0.531 1.688-0.199 0.562-0.406 1.104-0.531 1.688-0.188 0.562-0.375 1.104-0.562 1.688a13.782 13.782 0 0 1-0.469 1.708c-0.168 0.562-0.344 1.125-0.459 1.667-0.178 0.562-0.312 1.146-0.49 1.708-0.156 0.542-0.27 1.146-0.426 1.708-0.146 0.542-0.312 1.084-0.469 1.667-0.137 0.562-0.209 1.125-0.365 1.708a47.826 47.826 0 0 0-0.396 1.667c-0.156 0.604-0.229 1.146-0.363 1.688-0.137 0.562-0.24 1.167-0.365 1.708-0.135 0.521-0.229 1.146-0.322 1.709-0.115 0.541-0.23 1.062-0.344 1.688-0.094 0.541-0.209 1.104-0.324 1.708-0.031 0.562-0.145 1.083-0.26 1.646-0.104 0.604-0.188 1.146-0.291 1.688a133.75 133.75 0 0 1-0.25 1.688 35.197 35.197 0 0 1-0.219 1.729 33.364 33.364 0 0 0-0.219 1.688c-0.074 0.521-0.168 1.104-0.23 1.708a22.332 22.332 0 0 0-0.156 1.646c-0.051 0.604-0.113 1.125-0.166 1.688-0.041 0.625-0.104 1.146-0.156 1.688-0.062 0.562-0.115 1.188-0.166 1.708-0.043 0.542-0.084 1.146-0.125 1.688a67.788 67.788 0 0 0-0.115 1.729c-0.031 0.541-0.031 1.104-0.041 1.666-0.031 0.562-0.043 1.125-0.062 1.667-0.043 0.604-0.053 1.146-0.084 1.708-0.01 0.542-0.01 1.146-0.01 1.688-0.031 0.542-0.135 1.146-0.147 1.688 0 0.562-0.135 1.125-0.135 1.729v0.125c0 0.521 0.104 1.021 0.116 1.562 0.02 0.542 0.072 1.104 0.083 1.646 0 0.604 0.057 1.146 0.057 1.709 0.031 0.583 0.064 1.146 0.095 1.688 0.012 0.541 0.049 1.146 0.069 1.708 0.021 0.542 0.025 1.104 0.046 1.708 0.041 0.542 0.083 1.084 0.126 1.688 0.041 0.562 0.083 1.084 0.125 1.625 0.051 0.625 0.104 1.188 0.167 1.709 0.053 0.625 0.116 1.166 0.167 1.688 0.062 0.562 0.115 1.166 0.188 1.729 0.031 0.542 0.084 1.125 0.156 1.709 0.084 0.541 0.156 1.083 0.23 1.688 0.072 0.541 0.156 1.083 0.238 1.646 0.105 0.604 0.168 1.146 0.219 1.708 0.105 0.584 0.178 1.125 0.271 1.667 0.115 0.562 0.197 1.167 0.312 1.708 0.104 0.562 0.135 1.167 0.25 1.709 0.115 0.562 0.229 1.104 0.354 1.708 0.115 0.542 0.219 1.083 0.324 1.688 0.082 0.562 0.207 1.104 0.354 1.667 0.104 0.583 0.24 1.125 0.375 1.688 0.072 0.562 0.229 1.125 0.344 1.688 0.135 0.562 0.281 1.146 0.428 1.708 0.082 0.562 0.229 1.104 0.395 1.688 0.146 0.562 0.293 1.125 0.449 1.708 0.113 0.562 0.27 1.104 0.447 1.646 0.135 0.604 0.312 1.146 0.428 1.708 0.156 0.583 0.332 1.146 0.52 1.688l0.24 0.979c-3.979 0.291-8.041 0.541-12.104 0.729-3.418 0.146-6.781 0.229-10.219 0.229-3.344 0-6.584-0.083-9.771-0.229-6.709-0.312-13.166-0.916-19.562-1.708-3.865-0.458-7.719-1.062-11.572-1.688-3.188-0.5-6.396-1.062-9.615-1.708-2.896-0.521-5.791-1.084-8.719-1.646a664.509 664.509 0 0 0-8.406-1.708c-2.709-0.583-5.521-1.125-8.291-1.688-2.625-0.521-5.23-1.083-7.918-1.583l-3.176 1.583-3.428 1.688-3.334 1.708-3.426 1.646-3.428 1.708-3.354 1.688-3.396 1.708-3.416 1.688-3.375 1.709-3.406 1.666-3.396 1.667-3.385 1.708-3.406 1.709-3.406 1.688-3.355 1.708-3.426 1.688-3.396 1.646-3.385 1.709-3.396 1.688-3.416 1.708-3.355 1.708-3.426 1.688-3.396 1.646-3.385 1.708-2.406 1.208 0.375-1.208 0.572-1.708 0.572-1.646 0.562-1.688 0.553-1.708 0.604-1.708 0.543-1.688 0.551-1.709 0.553-1.646 0.625-1.688 0.541-1.708 0.543-1.688 0.604-1.709 0.553-1.708 0.562-1.667 0.541-1.666 0.604-1.709 0.562-1.688 0.553-1.708 0.562-1.688 0.594-1.708 0.541-1.646 0.553-1.708 0.604-1.688 0.543-1.708 0.551-1.688 0.553-1.688 0.604-1.667 0.562-1.688 0.543-1.708 0.613-1.709 0.543-1.708 0.582-1.667 0.543-1.708 0.604-1.646 0.541-1.688 0.543-1.709 0.572-1.729 0.584-1.688 0.551-1.709 0.553-1.625 0.604-1.688 0.303-1.021c-0.303-0.229-0.646-0.438-1.031-0.688-0.791-0.562-1.562-1.167-2.354-1.708a98.489 98.489 0 0 1-2.344-1.688c-0.793-0.562-1.562-1.104-2.355-1.709-0.76-0.541-1.5-1.104-2.25-1.646a64.951 64.951 0 0 0-2.219-1.688 77.378 77.378 0 0 0-2.145-1.729c-0.73-0.541-1.438-1.146-2.125-1.688-0.719-0.541-1.449-1.125-2.156-1.688a60.185 60.185 0 0 1-2.043-1.708c-0.656-0.542-1.344-1.104-2-1.667a49.442 49.442 0 0 1-2.01-1.666c-0.646-0.604-1.291-1.167-1.916-1.729-0.688-0.542-1.324-1.146-1.949-1.688-0.604-0.521-1.238-1.125-1.895-1.708-0.615-0.542-1.199-1.062-1.803-1.688-0.604-0.562-1.24-1.084-1.822-1.688-0.584-0.542-1.146-1.084-1.793-1.646a51.694 51.694 0 0 0-1.688-1.708c-0.613-0.583-1.166-1.167-1.707-1.688-0.605-0.542-1.146-1.167-1.688-1.729a42.127 42.127 0 0 1-1.646-1.688c-0.521-0.541-1.094-1.083-1.625-1.688-0.5-0.541-1.041-1.083-1.541-1.646-0.5-0.604-1.084-1.167-1.562-1.708-0.48-0.625-1.021-1.146-1.49-1.688-0.49-0.542-1.021-1.167-1.49-1.709-0.531-0.541-0.979-1.146-1.438-1.708a25.244 25.244 0 0 1-1.447-1.688c-0.469-0.542-0.928-1.083-1.428-1.667-0.438-0.583-0.916-1.146-1.354-1.708-0.416-0.583-0.885-1.125-1.312-1.667-0.459-0.562-0.896-1.146-1.354-1.708-0.396-0.542-0.812-1.146-1.271-1.708-0.385-0.542-0.812-1.104-1.219-1.667-0.428-0.562-0.812-1.104-1.25-1.708-0.385-0.562-0.812-1.125-1.197-1.688-0.406-0.584-0.762-1.125-1.188-1.688-0.365-0.584-0.762-1.146-1.105-1.688-0.416-0.521-0.76-1.146-1.166-1.709-0.322-0.541-0.729-1.104-1.053-1.688-0.395-0.541-0.781-1.083-1.094-1.688-0.375-0.583-0.688-1.125-1.062-1.666-0.322-0.604-0.688-1.146-0.988-1.688-0.355-0.604-0.699-1.167-1.012-1.709-0.344-0.541-0.645-1.146-0.988-1.708-0.334-0.521-0.615-1.146-0.959-1.688-0.271-0.521-0.604-1.083-0.938-1.688-0.271-0.562-0.584-1.104-0.854-1.667-0.324-0.604-0.646-1.146-0.875-1.688-0.312-0.604-0.615-1.166-0.875-1.688-0.293-0.562-0.531-1.166-0.834-1.708-0.303-0.562-0.531-1.167-0.812-1.688-0.303-0.542-0.5-1.104-0.803-1.729-0.26-0.541-0.488-1.104-0.76-1.688-0.271-0.562-0.479-1.104-0.719-1.646-0.271-0.604-0.521-1.146-0.729-1.708a18.479 18.479 0 0 1-0.709-1.688 26.16 26.16 0 0 1-0.666-1.688c-0.23-0.562-0.48-1.125-0.709-1.709-0.166-0.562-0.406-1.104-0.615-1.708-0.229-0.542-0.395-1.104-0.604-1.646-0.229-0.604-0.406-1.146-0.594-1.709-0.209-0.583-0.406-1.146-0.594-1.688a21.941 21.941 0 0 0-0.572-1.708c-0.168-0.542-0.324-1.125-0.512-1.688s-0.363-1.104-0.488-1.708c-0.188-0.542-0.355-1.104-0.531-1.667-0.188-0.583-0.271-1.125-0.449-1.667-0.166-0.604-0.344-1.166-0.479-1.708a22.83 22.83 0 0 0-0.438-1.708c-0.156-0.521-0.281-1.146-0.438-1.688-0.084-0.542-0.25-1.104-0.375-1.709a28.568 28.568 0 0 1-0.396-1.688 22.51 22.51 0 0 0-0.344-1.646c-0.135-0.604-0.25-1.167-0.363-1.708-0.105-0.584-0.188-1.146-0.303-1.688a46.238 46.238 0 0 1-0.322-1.709 16.332 16.332 0 0 1-0.262-1.708c-0.082-0.542-0.197-1.083-0.291-1.688-0.084-0.542-0.166-1.104-0.271-1.646-0.072-0.604-0.166-1.146-0.229-1.709-0.041-0.583-0.115-1.125-0.188-1.688-0.084-0.562-0.135-1.146-0.209-1.708-0.094-0.562-0.156-1.146-0.219-1.688-0.051-0.562-0.104-1.104-0.156-1.708 0-0.542-0.062-1.084-0.104-1.667-0.053-0.583-0.115-1.125-0.156-1.667-0.041-0.604-0.072-1.146-0.125-1.708-0.041-0.542-0.072-1.146-0.115-1.708 0-0.562-0.031-1.146-0.072-1.688-0.01-0.542-0.041-1.104-0.072-1.688-0.012-0.562-0.031-1.104-0.043-1.709-0.01-0.541-0.01-1.104-0.041-1.646 0-0.604 0-1.146-0.021-1.708 0-0.312-0.01-0.562-0.01-0.875 0-0.292 0.031-0.521 0.031-0.834 0-0.541 0.031-1.146 0.031-1.688 0-0.541 0-1.104 0.01-1.708 0.031-0.542 0.043-1.083 0.043-1.688 0.031-0.562 0.072-1.083 0.104-1.646 0.01-0.604 0.041-1.146 0.072-1.688 0.021-0.604 0.043-1.167 0.084-1.709 0.041-0.562 0.094-1.166 0.146-1.708 0.041-0.542 0.082-1.146 0.135-1.708 0.041-0.521 0.094-1.084 0.104-1.688 0.043-0.542 0.105-1.084 0.156-1.667 0.074-0.583 0.125-1.125 0.199-1.667 0.072-0.604 0.135-1.166 0.207-1.729 0.062-0.542 0.137-1.146 0.209-1.688 0.041-0.542 0.135-1.167 0.219-1.688 0.084-0.562 0.156-1.104 0.26-1.709 0.062-0.541 0.168-1.083 0.281-1.688 0.043-0.541 0.146-1.104 0.24-1.646 0.115-0.604 0.188-1.167 0.303-1.729 0.113-0.562 0.25-1.125 0.322-1.688 0.094-0.541 0.209-1.146 0.344-1.688 0.115-0.562 0.229-1.104 0.354-1.708 0.074-0.542 0.219-1.104 0.344-1.667 0.146-0.562 0.271-1.125 0.418-1.666 0.082-0.604 0.229-1.167 0.354-1.729 0.156-0.604 0.322-1.125 0.479-1.688 0.094-0.542 0.24-1.146 0.396-1.708 0.156-0.542 0.334-1.125 0.428-1.688 0.176-0.542 0.344-1.084 0.531-1.688 0.176-0.542 0.281-1.084 0.457-1.646 0.178-0.604 0.365-1.166 0.553-1.708 0.125-0.625 0.322-1.167 0.531-1.688 0.178-0.542 0.312-1.167 0.51-1.729 0.199-0.521 0.406-1.146 0.543-1.708 0.219-0.521 0.438-1.062 0.645-1.667 0.156-0.562 0.365-1.083 0.574-1.708 0.229-0.562 0.385-1.104 0.613-1.646 0.23-0.625 0.459-1.146 0.646-1.688 0.25-0.584 0.459-1.188 0.646-1.709 0.25-0.562 0.488-1.166 0.75-1.708 0.166-0.542 0.438-1.083 0.697-1.688 0.188-0.542 0.428-1.104 0.688-1.708 0.219-0.542 0.5-1.104 0.76-1.646 0.23-0.604 0.49-1.146 0.762-1.688 0.238-0.625 0.5-1.166 0.791-1.708a25.9 25.9 0 0 1 0.812-1.708c0.24-0.542 0.521-1.104 0.812-1.688 0.25-0.542 0.553-1.104 0.854-1.688 0.271-0.562 0.574-1.125 0.896-1.688 0.25-0.584 0.562-1.146 0.822-1.688 0.324-0.604 0.668-1.146 0.938-1.709 0.334-0.521 0.625-1.146 0.949-1.688 0.344-0.541 0.613-1.125 0.979-1.688 0.281-0.541 0.656-1.083 1-1.688 0.303-0.562 0.656-1.125 0.959-1.708 0.375-0.562 0.676-1.104 1.062-1.646 0.344-0.625 0.688-1.167 1.094-1.688 0.312-0.584 0.688-1.167 1.01-1.729 0.385-0.521 0.75-1.146 1.146-1.688 0.344-0.542 0.75-1.083 1.094-1.708 0.416-0.542 0.77-1.104 1.188-1.688 0.375-0.562 0.791-1.104 1.156-1.646 0.438-0.604 0.791-1.166 1.219-1.708 0.385-0.604 0.844-1.146 1.25-1.688 0.447-0.542 0.832-1.167 1.27-1.688 0.418-0.562 0.875-1.146 1.293-1.729 0.406-0.521 0.885-1.104 1.301-1.688 0.459-0.541 0.896-1.104 1.375-1.646 0.449-0.604 0.896-1.146 1.396-1.708 0.428-0.604 0.928-1.146 1.375-1.688 0.459-0.562 0.969-1.146 1.447-1.709 0.531-0.541 0.99-1.146 1.459-1.688a23.196 23.196 0 0 0 1.5-1.708c0.562-0.542 1.053-1.104 1.553-1.688a31.93 31.93 0 0 0 1.551-1.667c0.584-0.583 1.105-1.146 1.646-1.688 0.572-0.562 1.084-1.146 1.635-1.688 0.584-0.562 1.146-1.166 1.688-1.708 0.562-0.562 1.156-1.104 1.719-1.708 0.574-0.542 1.156-1.104 1.793-1.688 0.582-0.562 1.156-1.125 1.75-1.646 0.656-0.604 1.27-1.166 1.875-1.708a29.522 29.522 0 0 1 1.906-1.708c0.625-0.542 1.27-1.146 1.906-1.688 0.645-0.542 1.27-1.125 1.988-1.688 0.656-0.562 1.324-1.104 2.012-1.709 0.688-0.562 1.354-1.104 2.041-1.646 0.719-0.604 1.447-1.146 2.156-1.688a51.722 51.722 0 0 1 2.156-1.708c0.729-0.562 1.479-1.146 2.24-1.709 0.738-0.541 1.488-1.146 2.26-1.688 0.771-0.562 1.562-1.104 2.365-1.708 0.791-0.542 1.572-1.104 2.385-1.688 0.812-0.562 1.688-1.104 2.521-1.667a66.23 66.23 0 0 1 2.52-1.688c0.887-0.562 1.699-1.146 2.605-1.708 0.885-0.542 1.791-1.146 2.707-1.688 0.928-0.562 1.865-1.125 2.75-1.708 0.959-0.562 1.938-1.104 2.896-1.709 0.928-0.521 1.916-1.083 2.928-1.625 1.031-0.604 2.02-1.146 3.051-1.708 1.074-0.583 2.084-1.146 3.168-1.688 1.094-0.583 2.145-1.188 3.25-1.708 1.082-0.562 2.26-1.146 3.426-1.709 1.156-0.562 2.355-1.104 3.521-1.688 1.188-0.562 2.438-1.104 3.625-1.646a92.992 92.992 0 0 1 3.822-1.708 129.961 129.961 0 0 1 4.012-1.688c1.469-0.562 2.854-1.188 4.26-1.709 1.459-0.562 2.916-1.166 4.416-1.708 1.543-0.583 3.105-1.083 4.668-1.688 1.656-0.583 3.322-1.104 5.01-1.688 1.791-0.583 3.541-1.146 5.344-1.646 1.938-0.646 3.844-1.188 5.812-1.709 2.084-0.583 4.209-1.188 6.354-1.708 2.355-0.583 4.699-1.188 7.062-1.708 2.625-0.584 5.324-1.125 7.959-1.709 3.178-0.562 6.385-1.125 9.625-1.666 4.115-0.667 8.271-1.375 12.385-1.834 10.25-1.188 20.73-2.062 31.303-2.062h2.447c10.637 0 21.062 0.875 31.396 2.062 4.197 0.459 8.354 1.073 12.406 1.74 3.271 0.541 6.49 1.15 9.719 1.713 2.74 0.584 5.416 1.148 8.135 1.732 2.396 0.521 4.771 1.137 7.137 1.72 2.166 0.521 4.281 1.131 6.395 1.714 1.99 0.521 3.918 1.087 5.918 1.712 1.791 0.5 3.625 1.064 5.438 1.647 1.719 0.583 3.395 1.105 5.062 1.688 1.613 0.604 3.207 1.105 4.801 1.688 1.521 0.542 3.012 1.146 4.512 1.708 1.479 0.521 2.906 1.146 4.312 1.709a96.456 96.456 0 0 1 4.125 1.688c1.281 0.541 2.562 1.083 3.916 1.708 1.229 0.542 2.531 1.083 3.76 1.646 1.178 0.584 2.418 1.125 3.584 1.688 1.197 0.562 2.291 1.146 3.49 1.709 1.104 0.541 2.219 1.125 3.344 1.708 1.062 0.542 2.188 1.104 3.238 1.688 1.053 0.562 2.094 1.104 3.146 1.708 0.979 0.542 2 1.104 3.031 1.625 0.947 0.604 1.938 1.146 2.928 1.709 0.969 0.604 1.875 1.146 2.832 1.708 0.938 0.542 1.865 1.146 2.781 1.688 0.928 0.562 1.781 1.146 2.699 1.708 0.854 0.542 1.738 1.084 2.604 1.688 0.875 0.562 1.709 1.104 2.584 1.667 0.822 0.583 1.656 1.125 2.469 1.688a54.36 54.36 0 0 0 2.385 1.708c0.781 0.542 1.572 1.146 2.344 1.688 0.781 0.562 1.541 1.146 2.322 1.709a35.339 35.339 0 0 1 2.271 1.708c0.729 0.542 1.469 1.083 2.188 1.688 0.697 0.542 1.416 1.083 2.104 1.646 0.709 0.604 1.406 1.146 2.105 1.709 0.707 0.562 1.375 1.146 2.051 1.688 0.656 0.541 1.334 1.146 1.98 1.688 0.656 0.562 1.332 1.104 1.957 1.708a35.199 35.199 0 0 1 1.865 1.708c0.688 0.521 1.291 1.084 1.906 1.646a31.687 31.687 0 0 0 1.834 1.688c0.572 0.604 1.176 1.146 1.738 1.708 0.646 0.542 1.188 1.146 1.762 1.708a54.812 54.812 0 0 1 1.719 1.688c0.541 0.542 1.145 1.104 1.688 1.688a48.936 48.936 0 0 0 1.635 1.667 30.627 30.627 0 0 0 1.594 1.688c0.5 0.604 1 1.146 1.572 1.708 0.5 0.542 0.99 1.146 1.531 1.688 0.48 0.562 0.98 1.146 1.48 1.709 0.488 0.541 1 1.083 1.479 1.688 0.438 0.541 0.959 1.104 1.416 1.708 0.5 0.562 0.959 1.104 1.387 1.646 0.488 0.584 0.938 1.167 1.416 1.688 0.438 0.584 0.865 1.167 1.354 1.729 0.396 0.521 0.875 1.146 1.271 1.688 0.469 0.542 0.875 1.083 1.334 1.688 0.416 0.542 0.812 1.104 1.219 1.708 0.395 0.542 0.844 1.084 1.229 1.646 0.428 0.583 0.803 1.146 1.229 1.688 0.375 0.625 0.793 1.166 1.156 1.708 0.406 0.542 0.771 1.167 1.188 1.688 0.344 0.562 0.74 1.146 1.084 1.729 0.406 0.521 0.76 1.062 1.125 1.688 0.406 0.541 0.709 1.083 1.094 1.646 0.322 0.604 0.709 1.146 1.031 1.708 0.365 0.604 0.666 1.146 1.031 1.688 0.375 0.562 0.666 1.146 1.021 1.688 0.301 0.542 0.645 1.167 0.947 1.688 0.334 0.562 0.688 1.125 0.959 1.709 0.344 0.562 0.635 1.104 0.957 1.688 0.324 0.562 0.594 1.125 0.918 1.688 0.301 0.583 0.594 1.146 0.906 1.688 0.238 0.583 0.541 1.146 0.844 1.688 0.27 0.541 0.562 1.146 0.875 1.708 0.219 0.542 0.541 1.083 0.801 1.708 0.24 0.542 0.531 1.084 0.793 1.688 0.25 0.542 0.541 1.104 0.781 1.646 0.25 0.604 0.52 1.166 0.781 1.708 0.197 0.604 0.469 1.146 0.729 1.688 0.209 0.542 0.459 1.146 0.719 1.708 0.197 0.521 0.428 1.125 0.688 1.709 0.229 0.541 0.428 1.062 0.666 1.688 0.23 0.541 0.418 1.104 0.646 1.646 0.219 0.625 0.447 1.146 0.615 1.708 0.229 0.604 0.447 1.146 0.645 1.667 0.178 0.562 0.387 1.188 0.615 1.708 0.156 0.562 0.365 1.167 0.562 1.729 0.188 0.521 0.385 1.062 0.531 1.688 0.188 0.542 0.375 1.104 0.572 1.708 0.125 0.562 0.312 1.104 0.512 1.646 0.176 0.604 0.332 1.146 0.457 1.688 0.178 0.562 0.365 1.146 0.521 1.688 0.146 0.562 0.281 1.166 0.447 1.708 0.156 0.542 0.293 1.083 0.459 1.688 0.094 0.562 0.25 1.125 0.406 1.729 0.166 0.541 0.291 1.104 0.396 1.666 0.113 0.562 0.27 1.125 0.395 1.667 0.084 0.396 0.178 0.729 0.262 1.125-4.344-0.5-8.668-0.854-13.074-1.125-3.26-0.188-6.625-0.25-10-0.25-3.791 0-7.562 0.062-11.301 0.25-6.25 0.333-12.449 0.896-18.512 1.708a221.048 221.048 0 0 0-10.676 1.688c-2.824 0.5-5.543 1.084-8.293 1.688-2.363 0.542-4.719 1.084-7.051 1.729-2.031 0.5-4.053 1.062-6.105 1.646-1.832 0.562-3.666 1.104-5.52 1.688-1.688 0.584-3.365 1.125-5.021 1.709-1.562 0.521-3.115 1.104-4.656 1.688-1.521 0.521-2.969 1.125-4.406 1.688-1.354 0.562-2.709 1.083-4.115 1.729-1.27 0.542-2.541 1.062-3.863 1.667-1.199 0.583-2.459 1.125-3.668 1.667a98.188 98.188 0 0 1-3.5 1.688c-1.082 0.562-2.197 1.146-3.281 1.708a86.022 86.022 0 0 0-3.188 1.708c-1.062 0.542-2.113 1.062-3.082 1.709-1 0.521-1.99 1.083-2.969 1.688-0.918 0.562-1.865 1.083-2.803 1.646-0.947 0.604-1.885 1.125-2.74 1.688a69.306 69.306 0 0 1-2.635 1.708c-0.875 0.542-1.74 1.146-2.584 1.688-0.844 0.562-1.676 1.146-2.51 1.709a45 45 0 0 0-2.375 1.708c-0.791 0.542-1.541 1.083-2.334 1.646-0.76 0.584-1.51 1.125-2.26 1.709a77.73 77.73 0 0 1-2.166 1.688c-0.719 0.541-1.438 1.125-2.146 1.688-0.678 0.562-1.354 1.166-2.084 1.708-0.656 0.562-1.344 1.104-2 1.708-0.645 0.542-1.291 1.084-1.938 1.667a45.653 45.653 0 0 0-1.938 1.667 35.96 35.96 0 0 1-1.885 1.708c-0.594 0.542-1.197 1.125-1.781 1.688-0.635 0.562-1.209 1.146-1.791 1.708-0.574 0.542-1.188 1.104-1.73 1.688-0.562 0.562-1.104 1.084-1.707 1.709-0.531 0.541-1.062 1.104-1.637 1.646a25.084 25.084 0 0 1-1.613 1.688 22.5 22.5 0 0 1-1.562 1.708c-0.5 0.562-0.99 1.146-1.531 1.709-0.48 0.541-0.969 1.104-1.512 1.688-0.447 0.541-0.926 1.104-1.426 1.708-0.459 0.542-0.98 1.104-1.428 1.646-0.438 0.604-0.928 1.146-1.385 1.688-0.49 0.604-0.906 1.167-1.365 1.709-0.438 0.541-0.875 1.166-1.334 1.688-0.416 0.562-0.885 1.166-1.281 1.708-0.457 0.542-0.854 1.104-1.312 1.708-0.385 0.542-0.77 1.084-1.229 1.667a69.938 69.938 0 0 1-1.156 1.667c-0.438 0.604-0.803 1.146-1.24 1.708a46.194 46.194 0 0 1-1.104 1.688c-0.396 0.562-0.74 1.146-1.146 1.708-0.385 0.542-0.738 1.104-1.125 1.688-0.312 0.562-0.719 1.104-1.031 1.709-0.406 0.541-0.707 1.104-1.062 1.646-0.332 0.583-0.688 1.146-1.041 1.708-0.303 0.584-0.688 1.146-0.979 1.709-0.344 0.541-0.637 1.125-0.98 1.688-0.344 0.541-0.625 1.125-0.969 1.688-0.27 0.541-0.613 1.104-0.926 1.708-0.281 0.542-0.594 1.083-0.896 1.646-0.271 0.584-0.615 1.146-0.875 1.688-0.312 0.625-0.594 1.167-0.844 1.729a13.988 13.988 0 0 0-0.844 1.688 18.222 18.222 0 0 0-0.812 1.708c-0.291 0.521-0.531 1.084-0.791 1.688a21.308 21.308 0 0 0-0.793 1.688c-0.27 0.542-0.531 1.104-0.729 1.667-0.278 0.609-0.538 1.15-0.746 1.692zM850 588.209V590.897c0 0.438 0.068 0.791 0.057 1.208-0.01 0.479 0.014 0.938 0.004 1.438-0.031 0.458-0.02 0.917-0.051 1.417-0.012 0.458 0 0.979-0.02 1.438-0.021 0.458-0.047 0.958-0.088 1.438-0.031 0.521-0.041 0.979-0.104 1.396-0.041 0.542-0.102 1-0.143 1.5-0.053 0.479-0.094 0.917-0.156 1.438-0.053 0.458-0.125 0.917-0.168 1.417-0.062 0.458-0.093 0.979-0.134 1.438-0.072 0.458-0.146 0.979-0.229 1.438-0.053 0.479-0.156 0.958-0.23 1.416a30.22 30.22 0 0 1-0.238 1.459c-0.043 0.5-0.137 0.958-0.219 1.458-0.084 0.438-0.188 0.917-0.281 1.417-0.094 0.458-0.188 0.979-0.293 1.438-0.051 0.458-0.166 0.958-0.27 1.416-0.115 0.521-0.23 0.979-0.344 1.417-0.115 0.521-0.199 1-0.303 1.479-0.125 0.458-0.24 0.916-0.385 1.458-0.115 0.458-0.262 0.896-0.334 1.417-0.135 0.458-0.281 0.979-0.428 1.416-0.125 0.479-0.27 0.979-0.375 1.438-0.156 0.521-0.281 0.959-0.457 1.417-0.137 0.521-0.281 0.979-0.396 1.479-0.178 0.479-0.334 0.916-0.49 1.458-0.166 0.417-0.301 0.917-0.469 1.438l-0.488 1.375c-0.178 0.5-0.334 1-0.531 1.458-0.188 0.5-0.312 0.959-0.5 1.438-0.199 0.5-0.406 0.959-0.531 1.459-0.188 0.458-0.418 0.916-0.615 1.438-0.178 0.458-0.344 0.916-0.562 1.416-0.209 0.459-0.396 1-0.584 1.438a9.873 9.873 0 0 0-0.604 1.438c-0.229 0.521-0.459 0.959-0.688 1.417-0.178 0.521-0.416 0.979-0.646 1.479-0.229 0.458-0.416 0.916-0.676 1.416-0.25 0.459-0.428 0.938-0.688 1.438-0.23 0.459-0.438 0.959-0.699 1.417-0.238 0.479-0.5 1-0.697 1.417-0.291 0.541-0.562 0.979-0.76 1.479-0.271 0.479-0.553 0.938-0.781 1.438-0.25 0.459-0.553 0.938-0.771 1.438-0.271 0.459-0.572 0.917-0.803 1.438-0.281 0.459-0.572 0.979-0.832 1.417-0.281 0.458-0.574 0.958-0.824 1.438-0.322 0.521-0.562 0.938-0.863 1.417-0.312 0.5-0.574 1-0.887 1.479-0.312 0.459-0.604 0.938-0.916 1.438-0.271 0.459-0.594 0.938-0.916 1.438-0.271 0.459-0.605 0.959-0.896 1.417-0.322 0.458-0.688 0.979-0.959 1.417-0.354 0.521-0.645 0.979-1 1.438l-1 1.458c-0.301 0.5-0.666 0.938-0.957 1.438-0.396 0.458-0.75 0.917-1.062 1.438-0.375 0.479-0.688 0.979-1.074 1.438a82.93 82.93 0 0 0-1.051 1.417 17.82 17.82 0 0 1-1.105 1.416c-0.385 0.542-0.738 0.979-1.125 1.479-0.363 0.458-0.76 0.917-1.104 1.458-0.438 0.438-0.781 0.917-1.197 1.417-0.355 0.458-0.771 0.958-1.156 1.438-0.418 0.438-0.771 0.958-1.219 1.396-0.375 0.521-0.781 1-1.188 1.459-0.449 0.5-0.834 0.958-1.219 1.458-0.459 0.458-0.844 0.917-1.271 1.438-0.416 0.458-0.875 0.938-1.281 1.417-0.459 0.458-0.854 0.979-1.334 1.438-0.416 0.458-0.844 0.979-1.312 1.438-0.416 0.5-0.895 0.958-1.332 1.416-0.49 0.521-0.918 0.979-1.344 1.479-0.49 0.458-0.949 0.917-1.438 1.438-0.449 0.458-0.906 0.917-1.418 1.417-0.447 0.458-0.957 0.958-1.416 1.438-0.459 0.458-0.979 0.958-1.447 1.396-0.521 0.542-1.012 1-1.48 1.458-0.531 0.5-1.02 0.959-1.5 1.479a16.53 16.53 0 0 0-1.52 1.438c-0.562 0.438-1.062 0.917-1.574 1.417-0.562 0.458-1.062 0.958-1.582 1.416-0.574 0.459-1.074 0.979-1.605 1.438-0.572 0.521-1.104 0.959-1.635 1.417-0.584 0.521-1.125 0.979-1.656 1.479-0.553 0.458-1.146 0.938-1.697 1.458a46.01 46.01 0 0 0-1.719 1.396c-0.553 0.479-1.115 0.979-1.73 1.438-0.572 0.459-1.156 0.979-1.719 1.438-0.656 0.5-1.219 0.959-1.801 1.417-0.605 0.5-1.24 0.979-1.855 1.479-0.582 0.479-1.188 0.896-1.801 1.416-0.678 0.479-1.281 0.938-1.896 1.438-0.625 0.459-1.24 0.979-1.928 1.438l-0.666 0.479 0.322 0.958 0.396 1.417 0.469 1.479 0.416 1.438 0.48 1.416 0.395 1.417 0.48 1.438 0.416 1.438 0.396 1.479 0.457 1.416 0.418 1.438 0.457 1.417 0.418 1.417 0.457 1.438 0.418 1.479 0.469 1.438 0.406 1.417 0.426 1.438 0.459 1.438 0.416 1.417 0.459 1.479 0.428 1.438 0.447 1.417 0.416 1.438 0.459 1.417 0.416 1.416 0.406 1.5 0.459 1.417 0.416 1.438 0.48 1.417 0.395 1.438 0.459 1.416 0.438 1.479 0.459 1.417 0.406 1.458 0.406 1.417 0.469 1.438 0.406 1.416 0.457 1.479 0.428 1.417 0.459 1.438 0.27 1.041-1.844-1.041-2.656-1.438-2.656-1.417-2.594-1.479-2.688-1.416-2.604-1.438-2.646-1.417-2.688-1.458-2.594-1.417-2.666-1.479-2.646-1.416-2.604-1.438-2.656-1.417-2.635-1.438-2.646-1.417-2.656-1.5-2.594-1.416-2.666-1.417-2.656-1.438-2.615-1.417-2.666-1.438-2.668-1.479-2.582-1.417-2.668-1.438-2.613-1.438-0.438-0.25-0.918 0.25c-1.895 0.458-3.854 0.979-5.75 1.438-1.988 0.458-3.926 0.979-5.906 1.438-1.988 0.521-4.051 0.958-6.051 1.417-2.084 0.541-4.262 1-6.355 1.479-2.281 0.479-4.551 0.938-6.822 1.438-2.572 0.479-5.135 0.959-7.688 1.417-3.094 0.521-6.178 1.021-9.291 1.438-4.938 0.646-9.938 1.188-14.938 1.417-2.678 0.146-5.418 0.229-8.084 0.229-3.572 0-7.062-0.083-10.572-0.229-6.074-0.229-12.043-0.729-17.98-1.417-3.457-0.396-6.938-0.917-10.375-1.438-2.688-0.458-5.406-0.917-8.041-1.417-2.25-0.479-4.531-0.958-6.76-1.438-1.969-0.479-4-0.938-5.949-1.479-1.791-0.438-3.594-0.896-5.344-1.417-1.645-0.438-3.281-0.958-4.906-1.438-1.51-0.438-3-0.958-4.52-1.438-1.375-0.5-2.844-0.958-4.23-1.417-1.301-0.5-2.625-0.958-3.969-1.438-1.229-0.5-2.51-0.958-3.738-1.479-1.188-0.438-2.396-0.896-3.543-1.438-1.176-0.459-2.332-0.917-3.416-1.417-1.104-0.438-2.156-0.979-3.229-1.417a81.908 81.908 0 0 0-3.094-1.438c-1.021-0.5-2.012-0.958-3-1.416-0.959-0.521-1.928-0.979-2.906-1.479-0.855-0.458-1.793-0.917-2.709-1.438-0.916-0.458-1.803-0.958-2.709-1.438-0.854-0.438-1.656-0.958-2.52-1.417a87.5 87.5 0 0 0-2.512-1.416c-0.812-0.521-1.625-0.979-2.426-1.438-0.793-0.5-1.553-0.979-2.324-1.479-0.76-0.458-1.531-0.917-2.281-1.417-0.738-0.458-1.479-0.979-2.207-1.438-0.699-0.458-1.469-0.979-2.178-1.438-0.697-0.479-1.406-0.958-2.094-1.438-0.666-0.521-1.334-0.938-1.99-1.416a56.73 56.73 0 0 1-2.031-1.479 47.106 47.106 0 0 1-1.895-1.417c-0.656-0.458-1.303-0.979-1.918-1.438-0.604-0.458-1.176-0.958-1.822-1.438-0.604-0.479-1.197-0.958-1.791-1.396-0.615-0.521-1.168-1-1.75-1.458-0.543-0.5-1.168-0.938-1.73-1.479-0.541-0.458-1.104-0.917-1.666-1.417-0.521-0.458-1.053-0.979-1.625-1.438-0.531-0.458-1.031-0.958-1.584-1.416a20.46 20.46 0 0 0-1.582-1.417 19.57 19.57 0 0 0-1.49-1.438c-0.479-0.521-0.99-0.979-1.51-1.479-0.459-0.438-0.969-0.916-1.428-1.458-0.447-0.438-0.979-0.938-1.428-1.396-0.479-0.479-0.926-0.979-1.375-1.438-0.479-0.5-0.916-0.959-1.395-1.417-0.438-0.521-0.906-0.979-1.324-1.438-0.416-0.5-0.875-0.958-1.27-1.479-0.48-0.458-0.875-0.896-1.334-1.416-0.385-0.459-0.834-0.979-1.219-1.438-0.428-0.459-0.822-0.979-1.25-1.438a83.973 83.973 0 0 0-1.156-1.417 28.804 28.804 0 0 0-1.188-1.438c-0.375-0.5-0.781-0.958-1.135-1.458-0.406-0.459-0.73-0.938-1.137-1.459-0.322-0.438-0.738-0.938-1.072-1.396-0.375-0.479-0.719-0.979-1.084-1.438-0.332-0.5-0.688-0.979-1.051-1.417-0.334-0.541-0.699-1-1.021-1.458-0.344-0.5-0.635-0.938-1-1.479a34.114 34.114 0 0 1-1-1.416c-0.303-0.438-0.635-0.979-0.906-1.417a21.333 21.333 0 0 1-0.947-1.438c-0.344-0.521-0.615-0.979-0.938-1.438-0.324-0.5-0.574-0.938-0.896-1.438-0.312-0.5-0.572-0.958-0.896-1.458-0.25-0.459-0.551-0.917-0.844-1.438a54.19 54.19 0 0 0-0.832-1.417c-0.25-0.458-0.543-0.958-0.834-1.417-0.229-0.5-0.521-0.979-0.791-1.438-0.24-0.5-0.5-0.958-0.781-1.438-0.209-0.479-0.49-0.979-0.781-1.479-0.199-0.479-0.459-0.896-0.699-1.417a23.728 23.728 0 0 0-0.738-1.438c-0.209-0.438-0.438-0.958-0.699-1.417-0.25-0.521-0.426-0.979-0.688-1.438-0.207-0.5-0.426-0.958-0.656-1.438-0.229-0.5-0.457-0.958-0.645-1.438-0.209-0.5-0.459-0.938-0.656-1.479-0.178-0.417-0.387-0.938-0.615-1.417a13.643 13.643 0 0 0-0.594-1.417c-0.197-0.5-0.365-0.979-0.572-1.438-0.199-0.5-0.396-0.958-0.574-1.416-0.166-0.5-0.354-0.959-0.551-1.479-0.188-0.458-0.334-0.896-0.531-1.417-0.178-0.479-0.365-1-0.49-1.438-0.188-0.438-0.344-0.979-0.531-1.438-0.188-0.5-0.312-0.958-0.469-1.416l-0.49-1.438c-0.104-0.5-0.27-0.959-0.447-1.459-0.135-0.479-0.312-0.938-0.428-1.438-0.145-0.458-0.281-0.958-0.426-1.458a11.458 11.458 0 0 1-0.387-1.375 17.994 17.994 0 0 0-0.438-1.438c-0.125-0.542-0.238-0.979-0.322-1.458-0.135-0.5-0.26-0.959-0.406-1.479-0.115-0.458-0.24-0.896-0.344-1.417a28.158 28.158 0 0 0-0.312-1.438c-0.104-0.438-0.229-0.958-0.344-1.416-0.115-0.521-0.166-0.959-0.281-1.417a13 13 0 0 0-0.291-1.458c-0.105-0.5-0.199-0.959-0.281-1.479-0.053-0.438-0.146-0.896-0.23-1.417a34.996 34.996 0 0 1-0.25-1.416c-0.104-0.459-0.166-0.979-0.26-1.438-0.072-0.5-0.094-0.979-0.188-1.417-0.053-0.5-0.125-0.958-0.197-1.458-0.074-0.5-0.125-0.938-0.199-1.459-0.062-0.458-0.125-0.938-0.197-1.416a11.216 11.216 0 0 1-0.104-1.438c-0.053-0.459-0.115-0.979-0.156-1.438-0.043-0.5-0.105-0.959-0.146-1.417-0.041-0.521-0.072-0.958-0.115-1.438-0.031-0.5-0.072-0.958-0.113-1.5-0.031-0.417-0.074-0.875-0.094-1.396-0.031-0.479-0.053-0.979-0.074-1.438l-0.072-1.438c-0.021-0.5-0.021-0.959-0.021-1.417 0-0.5 0-0.958-0.01-1.438l-0.01-1.458c0-0.459-0.178-0.896-0.178-1.375l-0.138-0.042v-1.438c0-0.458 0.167-0.979 0.167-1.438 0.01-0.5 0.088-0.958 0.088-1.438 0-0.5 0.039-0.958 0.061-1.417 0.01-0.521 0.072-0.979 0.092-1.5 0.043-0.438 0.053-0.896 0.084-1.396 0.02-0.479 0.067-0.979 0.118-1.438 0.021-0.458 0.065-0.958 0.118-1.438 0.041-0.5 0.064-0.979 0.126-1.417 0.041-0.5 0.073-0.979 0.116-1.458 0.072-0.5 0.114-0.917 0.157-1.458 0.01-0.459 0.062-0.917 0.113-1.417 0.062-0.458 0.146-0.979 0.219-1.438 0.053-0.458 0.115-0.958 0.188-1.417 0.062-0.521 0.125-0.979 0.209-1.438 0.062-0.5 0.104-0.958 0.188-1.416 0.072-0.542 0.156-0.979 0.24-1.5 0.094-0.438 0.166-0.896 0.26-1.417 0.094-0.458 0.156-0.979 0.219-1.417 0.104-0.458 0.219-0.979 0.303-1.438 0.113-0.5 0.197-0.958 0.301-1.416 0.115-0.521 0.156-0.979 0.281-1.459 0.105-0.5 0.23-0.938 0.334-1.458a12.3 12.3 0 0 0 0.303-1.438c0.125-0.438 0.238-0.958 0.385-1.438 0.115-0.438 0.26-0.958 0.385-1.396 0.053-0.521 0.199-0.979 0.334-1.438 0.135-0.521 0.291-0.979 0.428-1.438 0.104-0.5 0.238-0.959 0.395-1.479 0.137-0.438 0.281-0.917 0.406-1.438 0.146-0.438 0.281-0.938 0.459-1.417 0.166-0.458 0.334-0.979 0.428-1.416 0.176-0.521 0.332-0.979 0.52-1.438 0.137-0.521 0.271-0.979 0.459-1.438 0.188-0.5 0.344-0.959 0.479-1.459 0.188-0.458 0.355-0.916 0.531-1.438 0.209-0.458 0.365-0.979 0.531-1.438 0.209-0.438 0.406-0.958 0.553-1.396 0.197-0.562 0.396-0.979 0.594-1.438 0.156-0.521 0.375-0.979 0.572-1.458 0.219-0.5 0.365-0.959 0.574-1.459 0.229-0.458 0.457-0.916 0.625-1.438 0.229-0.458 0.469-0.958 0.697-1.416 0.156-0.459 0.385-0.979 0.615-1.417 0.197-0.521 0.426-0.979 0.688-1.458 0.238-0.521 0.416-0.959 0.676-1.438 0.24-0.479 0.438-0.959 0.699-1.459 0.25-0.458 0.488-0.916 0.729-1.416 0.25-0.479 0.521-0.979 0.729-1.438 0.281-0.459 0.531-0.959 0.762-1.417 0.291-0.521 0.562-1 0.791-1.438 0.271-0.5 0.541-0.979 0.771-1.458 0.301-0.479 0.594-0.938 0.844-1.459 0.291-0.458 0.562-0.916 0.832-1.416 0.312-0.479 0.543-0.979 0.865-1.438 0.312-0.459 0.584-0.959 0.896-1.417 0.322-0.521 0.572-0.979 0.895-1.438 0.271-0.521 0.615-0.958 0.938-1.438 0.281-0.5 0.625-0.958 0.875-1.458 0.365-0.459 0.709-0.917 0.98-1.438 0.354-0.459 0.656-0.959 1.02-1.438 0.312-0.459 0.637-0.959 1.012-1.417 0.301-0.521 0.676-0.979 0.979-1.417 0.396-0.521 0.697-0.979 1.084-1.458 0.375-0.479 0.688-0.938 1.094-1.458 0.322-0.479 0.729-0.917 1.062-1.417 0.395-0.458 0.738-0.979 1.145-1.438 0.344-0.458 0.771-0.979 1.125-1.438 0.418-0.479 0.781-0.979 1.188-1.417 0.375-0.521 0.793-0.979 1.168-1.438 0.447-0.521 0.832-0.958 1.26-1.479 0.385-0.459 0.834-0.917 1.219-1.438 0.459-0.438 0.875-0.959 1.303-1.396 0.426-0.479 0.832-0.979 1.301-1.438 0.418-0.521 0.906-0.979 1.334-1.416 0.49-0.542 0.906-1 1.334-1.459 0.5-0.5 0.947-0.938 1.447-1.479l1.406-1.417c0.469-0.458 0.99-1 1.459-1.417 0.469-0.458 1-0.979 1.51-1.438 0.469-0.5 1-0.979 1.5-1.438 0.5-0.5 1.041-0.938 1.553-1.438 0.52-0.5 1.082-0.958 1.604-1.458 0.521-0.458 1.115-0.917 1.646-1.438 0.531-0.458 1.113-0.958 1.656-1.417 0.551-0.458 1.125-0.979 1.738-1.438a31.3 31.3 0 0 1 1.699-1.416c0.635-0.521 1.238-0.979 1.822-1.438 0.594-0.479 1.25-0.959 1.854-1.479 0.615-0.479 1.24-0.896 1.855-1.438 0.707-0.458 1.322-0.958 1.969-1.396 0.656-0.479 1.301-1 1.957-1.459 0.688-0.5 1.396-0.958 2.084-1.416 0.666-0.5 1.354-0.979 2.072-1.459 0.709-0.479 1.406-0.938 2.137-1.438a100.88 100.88 0 0 0 2.238-1.458c0.762-0.438 1.531-0.938 2.293-1.396 0.77-0.479 1.562-0.979 2.344-1.438 0.801-0.521 1.625-0.979 2.406-1.438 0.801-0.5 1.635-0.959 2.479-1.417 0.865-0.5 1.719-0.979 2.594-1.479 0.896-0.479 1.812-0.916 2.697-1.416 0.875-0.479 1.803-1 2.75-1.438 0.949-0.459 1.918-0.979 2.834-1.438 1.01-0.521 2.041-0.959 3.053-1.417 0.988-0.521 2.051-0.979 3.113-1.458 1.031-0.5 2.115-0.959 3.209-1.438 1.135-0.5 2.291-0.938 3.396-1.438 1.219-0.459 2.395-0.979 3.613-1.438 1.23-0.479 2.459-0.979 3.75-1.417 1.303-0.542 2.625-1 3.98-1.438 1.395-0.521 2.781-1 4.197-1.438 1.51-0.521 3.01-0.979 4.572-1.479 1.594-0.479 3.25-0.916 4.906-1.416 1.793-0.479 3.605-1 5.387-1.438 2-0.459 3.979-1 6.02-1.417 2.23-0.521 4.469-1 6.74-1.417 2.74-0.583 5.438-1.021 8.229-1.479 3.449-0.542 7.012-0.844 10.531-1.303 8.855-0.958 17.865-1.406 27.094-1.406h1.262c8.688 0 17.281 0.448 25.75 1.406 3.438 0.459 6.791 0.839 10.176 1.381 2.678 0.458 5.281 0.856 7.938 1.439 2.188 0.417 4.365 0.877 6.584 1.397 1.938 0.417 3.896 0.948 5.822 1.407 1.762 0.438 3.543 0.953 5.24 1.433 1.635 0.5 3.229 0.935 4.834 1.414 1.5 0.5 2.957 0.958 4.51 1.478 1.385 0.438 2.75 0.917 4.125 1.437 1.354 0.438 2.635 0.896 3.928 1.438 1.291 0.438 2.488 0.937 3.729 1.417 1.197 0.458 2.365 0.979 3.562 1.438 1.135 0.5 2.25 0.938 3.396 1.438 1.051 0.479 2.135 0.938 3.229 1.438 0.969 0.479 2.041 0.938 3.072 1.458 0.969 0.458 2 0.896 2.99 1.417 0.969 0.458 1.885 0.979 2.834 1.438 0.947 0.438 1.863 0.958 2.791 1.438 0.875 0.5 1.76 0.938 2.678 1.416 0.875 0.5 1.738 0.979 2.594 1.479 0.844 0.458 1.676 0.917 2.51 1.417 0.834 0.458 1.646 0.916 2.447 1.438 0.803 0.458 1.584 0.958 2.355 1.438 0.791 0.458 1.562 0.958 2.322 1.396 0.729 0.521 1.49 1 2.197 1.458 0.74 0.5 1.449 0.959 2.168 1.438 0.719 0.479 1.416 0.959 2.125 1.459 0.666 0.458 1.385 0.916 2.094 1.416 0.656 0.459 1.332 0.979 1.988 1.459 0.656 0.438 1.293 0.938 1.98 1.396 0.625 0.542 1.27 0.958 1.906 1.438 0.613 0.521 1.26 1 1.875 1.479 0.604 0.458 1.197 0.916 1.801 1.438 0.637 0.458 1.209 0.916 1.781 1.416 0.574 0.459 1.199 0.979 1.771 1.438 0.541 0.459 1.094 0.959 1.697 1.417a18.91 18.91 0 0 0 1.688 1.438 81.2 81.2 0 0 0 1.615 1.458c0.531 0.5 1.053 0.938 1.562 1.438 0.541 0.459 1.053 0.938 1.572 1.438 0.553 0.459 1.021 0.979 1.562 1.438 0.48 0.417 0.949 0.959 1.49 1.417 0.479 0.5 0.938 0.958 1.447 1.417 0.459 0.541 0.98 0.979 1.449 1.479 0.438 0.459 0.938 0.917 1.363 1.459 0.5 0.438 0.949 0.896 1.387 1.416 0.479 0.459 0.875 0.959 1.363 1.438 0.418 0.438 0.887 0.959 1.303 1.396 0.416 0.521 0.865 0.979 1.26 1.438l1.303 1.479c0.406 0.459 0.834 0.917 1.209 1.438 0.426 0.438 0.812 0.938 1.25 1.417 0.354 0.458 0.801 0.979 1.156 1.438 0.416 0.458 0.77 0.979 1.166 1.438 0.365 0.5 0.771 0.938 1.125 1.417 0.385 0.521 0.729 0.979 1.135 1.458 0.334 0.479 0.73 0.938 1.062 1.458 0.365 0.438 0.699 0.896 1.084 1.417 0.375 0.458 0.688 0.958 1.031 1.417 0.334 0.479 0.709 0.979 0.99 1.438 0.385 0.521 0.719 0.979 1.02 1.438l1 1.458c0.293 0.479 0.637 0.917 0.98 1.438 0.281 0.458 0.582 0.917 0.875 1.438 0.322 0.458 0.666 0.958 0.926 1.417 0.334 0.458 0.615 0.958 0.887 1.438 0.312 0.5 0.594 0.958 0.875 1.416 0.332 0.521 0.594 0.979 0.885 1.459 0.303 0.479 0.531 0.958 0.822 1.458 0.281 0.438 0.543 0.917 0.834 1.438 0.24 0.458 0.51 0.958 0.781 1.417 0.229 0.458 0.49 0.958 0.781 1.438 0.24 0.5 0.5 0.958 0.75 1.416 0.281 0.5 0.479 0.979 0.74 1.459 0.27 0.479 0.457 0.916 0.729 1.438 0.229 0.479 0.438 0.938 0.697 1.458 0.23 0.438 0.459 0.958 0.656 1.417 0.23 0.458 0.49 0.958 0.668 1.416 0.229 0.521 0.479 0.979 0.697 1.438 0.178 0.5 0.406 0.959 0.615 1.459 0.176 0.479 0.406 0.938 0.604 1.458 0.229 0.458 0.385 0.875 0.584 1.438 0.219 0.438 0.416 0.958 0.562 1.396 0.197 0.459 0.416 0.979 0.604 1.438 0.166 0.521 0.344 0.979 0.531 1.438 0.188 0.5 0.385 0.959 0.51 1.459 0.178 0.458 0.387 0.916 0.562 1.438 0.125 0.458 0.281 0.916 0.469 1.438 0.178 0.438 0.334 0.958 0.449 1.416 0.166 0.479 0.354 0.979 0.51 1.417 0.178 0.521 0.281 1 0.416 1.438 0.146 0.521 0.324 0.979 0.459 1.479 0.156 0.458 0.25 0.916 0.406 1.438 0.146 0.458 0.281 0.916 0.396 1.438 0.156 0.438 0.229 0.958 0.375 1.396 0.145 0.479 0.27 1 0.406 1.438 0.135 0.521 0.197 0.958 0.312 1.438l0.354 1.458c0.135 0.479 0.25 0.938 0.303 1.459 0.104 0.458 0.197 0.916 0.312 1.416 0.113 0.459 0.219 0.979 0.322 1.438 0.094 0.438 0.135 0.959 0.24 1.417 0.104 0.521 0.176 0.979 0.27 1.417 0.084 0.521 0.178 0.958 0.262 1.5 0.082 0.458 0.145 0.916 0.219 1.416l0.197 1.438c0.072 0.459 0.146 0.959 0.219 1.417 0.062 0.458 0.156 0.979 0.209 1.438 0.062 0.5 0.082 0.958 0.113 1.417 0.062 0.541 0.105 0.958 0.178 1.458 0.041 0.479 0.094 0.958 0.156 1.458 0.041 0.438 0.084 0.917 0.115 1.417 0.041 0.479 0.082 0.979 0.145 1.438 0.012 0.458 0.053 0.958 0.084 1.438 0.031 0.5 0.053 0.958 0.072 1.396 0 0.521 0 0.979 0.021 1.5 0.021 0.459 0.062 0.917 0.072 1.417 0 0.479-0.089 0.938-0.067 1.438 0.01 0.458-0.047 0.979-0.047 1.438v0.419z" fill="#44AF35" p-id="6483"></path></svg>